<?xml version="1.0"?>
<svg id="Layer_1" data-name="Layer 1" xmlns="http://www.w3.org/2000/svg" viewBox="0 0 345.6 299.24">
  <defs>
    
  </defs>
  <g>
    <path fill="#4B9CD3" d="m184.05,284.52c-68.24,0-123.75-55.52-123.75-123.75s55.52-123.75,123.75-123.75,123.75,55.52,123.75,123.75-55.52,123.75-123.75,123.75Zm0-240.8c-64.54,0-117.05,52.51-117.05,117.05s52.51,117.05,117.05,117.05,117.05-52.51,117.05-117.05-52.51-117.05-117.05-117.05Z"></path>
    <g>
      <circle fill="#C8102E" cx="184.05" cy="160.76" r="107.73"></circle>
      <g>
        <g>
          <path fill="#ffffff" d="m139.18,170.41h22.3c-2.69,18.84-12.56,31.78-32.55,31.78-27.04,0-29.34-11.4-24.35-47.16,4.87-34.6,11.02-47.41,37.55-47.41,19.99,0,26.27,12.94,23.71,31.78h-22.3c1.15-8.2.77-13.97-4.87-13.97-6.41,0-8.07,4.74-11.66,29.6-3.46,25.37-3.2,29.34,3.2,29.34,5.64,0,7.69-5.51,8.97-13.97Z"></path>
          <path fill="#ffffff" d="m212.54,154.36l-13.76,46.29h-10.28l-2.23-46.29-5.89,46.29h-20.37l12.94-91.49h21.66l5.13,47.93,18.58-47.93h21.66l-12.94,91.49h-20.37l5.89-46.29Z"></path>
          <path fill="#ffffff" d="m265.62,109.15l-12.94,91.49h-20.37l12.94-91.49h20.37Z"></path>
        </g>
        <g>
          <path fill="#ffffff" d="m146.73,222.08h2.51l-.39,2.84h-2.51l-.45,3.19h3.53l-.41,2.84h-6.78l2.06-14.58h6.78l-.41,2.84h-3.53l-.41,2.88Z"></path>
          <path fill="#ffffff" d="m156.41,220.39c-.37,2.57,4.31,2.41,3.72,6.66-.35,2.45-.94,4.15-4.7,4.15-3.51,0-3.88-2.23-3.45-5.23h3.55c-.18,1.31-.35,2.39.29,2.39.49,0,.65-.51.76-1.33.39-2.7-4.23-2.35-3.61-6.72.41-3,1.43-4.19,4.74-4.19,2.98,0,3.78,2.06,3.37,5.06h-3.55c.25-1.78.22-2.23-.29-2.23-.45,0-.65.27-.82,1.43Z"></path>
          <path fill="#ffffff" d="m167.48,230.95h-3.25l1.65-11.74h-2.92l.41-2.84h9.09l-.41,2.84h-2.92l-1.65,11.74Z"></path>
          <path fill="#ffffff" d="m173.64,228.25h2.7l-.37,2.7h-2.7l.37-2.7Z"></path>
          <path fill="#ffffff" d="m192.67,216.37l-2.06,14.58h-3.25l1.37-9.68s-1.16,1.29-2.84,1.29l.47-3.25c1.8,0,3.08-2.94,3.08-2.94h3.23Z"></path>
          <path fill="#ffffff" d="m200.31,225.02s-.51.41-1.59.41c-2.98,0-3.9-1.82-3.53-4.45.35-2.39,1.45-5.02,4.9-5.02,4.25,0,4.62,2.51,3.9,7.7-.71,5.02-1.76,7.74-5.74,7.74-3.1,0-4.08-1.74-3.66-4.74h3.51c-.16,1.1-.12,1.9.55,1.9.86,0,1.31-1.12,1.65-3.53Zm.41-2.72c.39-2.82.2-3.51-.84-3.51s-1.43.88-1.59,2.08c-.16,1.18-.14,1.84,1.08,1.84.8,0,1.35-.41,1.35-.41Z"></path>
          <path fill="#ffffff" d="m207.25,216.37h7.86l-4.98,14.58h-3.43l4.02-11.78h-3.86l.39-2.8Z"></path>
          <path fill="#ffffff" d="m224.9,226.15c-.49,3.45-1.69,5.23-5.45,5.23-2.74,0-3.94-1.72-3.51-4.74h3.51c-.14,1.02-.04,1.88.61,1.88.84,0,1.02-.55,1.27-2.37.27-1.82.08-2.55-.76-2.55-.9,0-1,.71-1,.71h-3l1.12-7.94h8.17l-.47,3.25h-5.17l-.27,1.98s.76-.57,1.98-.57c2.16,0,3.45,1.67,2.96,5.13Z"></path>
        </g>
      </g>
    </g>
  </g>
  <g>
    <path fill="#4B9CD3" d="m59.81,203.06l-6.3,2.06-6.68,5.98-1.08-3.32,4.27-3.27-5.37-.13-1.08-3.32,8.92.89,6.3-2.06,1.03,3.16Z"></path>
    <path fill="#4B9CD3" d="m47.85,186.99c5.45-1.24,7.53-1.37,8.52,2.98.99,4.36-.94,5.14-6.39,6.38-5.27,1.2-7.57,1.38-8.56-2.97-.99-4.36,1.16-5.19,6.43-6.39Zm1.32,5.82c4.01-.91,4.61-1.18,4.38-2.19-.23-1.01-.89-.99-4.9-.08-3.93.9-4.65,1.19-4.42,2.2.23,1.01,1.01.96,4.94.07Z"></path>
    <path fill="#4B9CD3" d="m47.26,177.42l-8.18,1.07-.44-3.34,8.18-1.07c5.75-.75,6.9.06,7.4,3.87s-.41,4.9-6.16,5.65l-8.18,1.07-.44-3.34,8.18-1.07c3.26-.43,4.06-.72,3.89-1.96-.16-1.24-1.01-1.31-4.27-.89Z"></path>
    <path fill="#4B9CD3" d="m48,156.88l.07-3.61c3.05.06,5.13,1.41,5.06,4.65-.09,4.38-1.95,4.97-7.74,4.86-5.61-.11-7.67-.86-7.59-5.16.06-3.24,2.19-4.51,5.24-4.45l-.07,3.62c-1.33-.03-2.27.14-2.29,1.06-.02,1.04.74,1.22,4.78,1.3,4.11.08,4.76-.05,4.78-1.09.02-.91-.87-1.14-2.24-1.17Z"></path>
    <path fill="#4B9CD3" d="m39.04,143.34l15.11-1.72-.35,3.29-2.29.13-.28,2.58,2.21.61-.35,3.29-14.4-4.89.35-3.29Zm9.57,3.56l.18-1.69-5.28.29,5.1,1.4Z"></path>
    <path fill="#4B9CD3" d="m42.03,126.23l14.54,2.99-.67,3.24-7.87,1.86,7.19,1.48-.67,3.24-14.54-2.99.66-3.22,8.29-1.79-7.59-1.56.67-3.24Z"></path>
    <path fill="#4B9CD3" d="m43.07,122.52l.74-2.64,4.49,1.69-.52,1.84-4.71-.89Z"></path>
    <path fill="#4B9CD3" d="m60.95,115.25l-1.11,3.11-11.26-4-.99,2.8-2.72-.97,3.1-8.71,2.72.97-.99,2.8,11.26,4Z"></path>
    <path fill="#4B9CD3" d="m58.39,94.69c2.31,1.23,4.39-3.03,8.21-1,2.2,1.17,3.55,2.31,1.75,5.69-1.68,3.16-4,2.7-6.7,1.26l1.7-3.19c1.17.62,2.15,1.14,2.45.57.23-.44-.19-.76-.92-1.15-2.42-1.29-4.3,2.99-8.22.9-2.7-1.44-3.35-2.77-1.77-5.75,1.43-2.68,3.8-2.67,6.49-1.23l-1.7,3.19c-1.6-.85-2.04-.99-2.28-.53-.21.4-.05.68.99,1.23Z"></path>
    <path fill="#4B9CD3" d="m74.6,88.38l-1.79,2.78-10.04-6.48-1.61,2.5-2.43-1.57,5.01-7.77,2.43,1.57-1.61,2.5,10.04,6.48Z"></path>
    <path fill="#4B9CD3" d="m72.69,75.56l1.56-2.03,2.29,1.76-1.56,2.03,2.57,1.97,2.19-2.85,2.29,1.76-4.2,5.47-11.77-9.04,4.2-5.47,2.29,1.76-2.19,2.85,2.32,1.78Z"></path>
    <path fill="#4B9CD3" d="m77.22,61.19l13.21,7.54-2.23,2.44-1.93-1.25-1.75,1.92,1.42,1.8-2.23,2.44-8.72-12.46,2.23-2.44Zm5.61,8.53l1.15-1.26-4.43-2.89,3.28,4.15Z"></path>
    <path fill="#4B9CD3" d="m92.83,62.5l2.48-2.3,1.97,2.12-4.91,4.55-10.1-10.88,2.42-2.25,8.13,8.76Z"></path>
    <path fill="#4B9CD3" d="m105.37,55.71l-8.59-12.1,5.63-3.99,1.67,2.36-2.93,2.08,1.76,2.48,2.09-1.48,1.67,2.36-2.09,1.48,3.49,4.92-2.7,1.91Z"></path>
    <path fill="#4B9CD3" d="m113.25,43.7l2.86,4.81-2.84,1.69-7.59-12.75,2.84-1.69c3.34-1.99,5.22-1.46,6.82,1.22.87,1.46,1.24,2.7.72,3.69,2.19.27,3.56,3.78,4.8,5.03l-2.84,1.69c-.99-1.1-1.97-3.84-3.73-4.28l-1.04.62Zm-1.13-1.89c1.38-.82,1.45-1.35.6-2.77-.85-1.43-1.46-1.79-2.83-.98l2.23,3.75Z"></path>
    <path fill="#4B9CD3" d="m128,33.88c2.44,5.03,3.04,7.03-.98,8.98-4.02,1.95-5.22.24-7.66-4.79-2.36-4.86-3.05-7.06.97-9.01,4.02-1.95,5.32-.04,7.67,4.83Zm-5.37,2.6c1.79,3.7,2.19,4.23,3.12,3.77.94-.45.77-1.09-1.03-4.79-1.76-3.63-2.21-4.27-3.14-3.81-.94.45-.71,1.2,1.05,4.83Z"></path>
    <path fill="#4B9CD3" d="m138.4,30.6l1.3,6.65-1.93.71-3.37-5.89,2.31,6.28-3.1,1.14-5.13-13.92,3.3-1.21,4.5,6.62-.89-7.95,3.3-1.21,5.13,13.92-3.1,1.14-2.31-6.28Z"></path>
    <path fill="#4B9CD3" d="m155.25,21.75c.52,2.57,5.13,1.47,5.98,5.7.49,2.44.47,4.21-3.28,4.97-3.5.71-4.62-1.38-5.23-4.37l3.54-.72c.26,1.3.48,2.38,1.11,2.26.49-.1.47-.62.3-1.44-.54-2.69-5.04-1.42-5.92-5.78-.6-2.99.01-4.35,3.31-5.01,2.97-.6,4.47,1.24,5.07,4.23l-3.54.72c-.36-1.77-.53-2.2-1.04-2.1-.45.09-.56.39-.32,1.55Z"></path>
    <path fill="#4B9CD3" d="m173.1,15.05l1.6,14.76-3.29.36-4.18-6.93.79,7.29-3.29.36-1.6-14.76,3.27-.35,4.25,7.34-.84-7.71,3.29-.36Z"></path>
    <path fill="#4B9CD3" d="m183.73,14.72l3.57,14.78-3.3.05-.41-2.26-2.6.04-.34,2.27-3.3.05,3.08-14.89,3.3-.05Zm-2.35,9.93l1.7-.03-.94-5.2-.77,5.23Z"></path>
    <path fill="#4B9CD3" d="m193.24,29.89l-3.3-.25,1.13-14.8,3.3.25c3.88.3,5.08,2.22,4.83,5.54-.24,3.11-1.72,4.81-5.6,4.51l-.36,4.75Zm.56-7.36c1.6.12,1.98-.47,2.1-2.13.13-1.66-.14-2.51-1.74-2.63l-.36,4.77Z"></path>
    <path fill="#4B9CD3" d="m214.68,22.14c-.57,2.55,4.09,3.43,3.14,7.65-.55,2.43-1.29,4.03-5.02,3.2-3.49-.78-3.66-3.14-2.99-6.12l3.53.79c-.29,1.3-.53,2.37.1,2.51.49.11.68-.38.86-1.19.6-2.68-4.02-3.35-3.05-7.69.67-2.98,1.78-3.97,5.07-3.23,2.96.66,3.58,2.95,2.91,5.93l-3.53-.79c.4-1.76.41-2.23-.09-2.34-.45-.1-.67.13-.93,1.28Z"></path>
    <path fill="#4B9CD3" d="m225.51,26.79l2.44.76-.86,2.76-2.44-.76-.96,3.1,3.43,1.07-.86,2.76-6.59-2.04,4.4-14.17,6.59,2.04-.86,2.76-3.43-1.07-.87,2.8Z"></path>
    <path fill="#4B9CD3" d="m240.58,26.07l-2.51,15-3.06-1.25.51-2.24-2.41-.98-1.2,1.96-3.06-1.25,8.68-12.49,3.06,1.25Zm-6.06,8.22l1.58.64,1.18-5.15-2.76,4.51Z"></path>
    <path fill="#4B9CD3" d="m244.74,41.17l3.02,1.54-1.31,2.58-5.97-3.04,6.73-13.23,2.95,1.5-5.42,10.65Z"></path>
    <path fill="#4B9CD3" d="m250.52,44.45l2.37,1.39-1.39,2.37-2.37-1.39,1.39-2.37Z"></path>
  </g>
</svg>