<?xml version="1.0" encoding="UTF-8"?>
<svg id="Layer_1" data-name="Layer 1" xmlns="http://www.w3.org/2000/svg" viewBox="0 0 17 17">
  <defs>
    <style>
      .cls-1 {
        fill: #fff;
      }

      .cls-1, .cls-2, .cls-3 {
        stroke-width: 0px;
      }

      .cls-2 {
        fill: #ed1c24;
      }

      .cls-3 {
        fill: #00aeef;
      }
    </style>
  </defs>
  <path class="cls-3" d="m8.5,16.5C4.09,16.5.5,12.91.5,8.5S4.09.5,8.5.5s8,3.59,8,8-3.59,8-8,8Zm0-15.21c-3.98,0-7.21,3.24-7.21,7.21s3.24,7.21,7.21,7.21,7.21-3.24,7.21-7.21S12.48,1.29,8.5,1.29Z"/>
  <g>
    <circle class="cls-2" cx="8.5" cy="8.5" r="6.81"/>
    <g>
      <path class="cls-1" d="m5.67,9.48h1.41c-.17,1.19-.79,2.01-2.06,2.01-1.71,0-1.85-.72-1.54-2.98.31-2.19.7-3,2.37-3,1.26,0,1.66.82,1.5,2.01h-1.41c.07-.52.05-.88-.31-.88-.4,0-.51.3-.74,1.87-.22,1.6-.2,1.85.2,1.85.36,0,.49-.35.57-.88Z"/>
      <path class="cls-1" d="m10.3,8.47l-.87,2.92h-.65l-.14-2.92-.37,2.92h-1.29l.82-5.78h1.37l.32,3.03,1.17-3.03h1.37l-.82,5.78h-1.29l.37-2.92Z"/>
      <path class="cls-1" d="m13.65,5.61l-.82,5.78h-1.29l.82-5.78h1.29Z"/>
    </g>
  </g>
</svg>